<svg width="32" height="33" viewBox="0 0 32 33" fill="none" xmlns="http://www.w3.org/2000/svg">
<path d="M12.3077 30C12.3077 31.6406 11.1923 33 9.84615 33C8.5 33 7.38462 31.6406 7.38462 30C7.38462 28.3594 8.5 27 9.84615 27C11.1923 27 12.3077 28.3594 12.3077 30ZM29.5385 30C29.5385 31.6406 28.4231 33 27.0769 33C25.7308 33 24.6154 31.6406 24.6154 30C24.6154 28.3594 25.7308 27 27.0769 27C28.4231 27 29.5385 28.3594 29.5385 30ZM32 4.5V16.5C32 17.25 31.5192 17.9062 30.9038 18L10.8269 20.8594C10.9231 21.3984 11.0769 21.9375 11.0769 22.5C11.0769 23.0391 10.8077 23.5312 10.6154 24H28.3077C28.9808 24 29.5385 24.6797 29.5385 25.5C29.5385 26.3203 28.9808 27 28.3077 27H8.61539C7.94231 27 7.38462 26.3203 7.38462 25.5C7.38462 24.7734 8.25 23.0156 8.55769 22.2891L5.15385 3H1.23077C0.557692 3 0 2.32031 0 1.5C0 0.679688 0.557692 0 1.23077 0H6.15385C7.44231 0 7.48077 1.875 7.67308 3H30.7692C31.4423 3 32 3.67969 32 4.5Z" fill="white"/>
</svg>
