<svg width="32" height="33" viewBox="0 0 32 33" fill="none" xmlns="http://www.w3.org/2000/svg">
<g clip-path="url(#clip0_32_40)">
<path d="M16 0C24.8393 0 32 7.38449 32 16.5C32 25.5603 24.875 33 16 33C7.14286 33 0 25.5787 0 16.5C0 7.38449 7.16071 0 16 0ZM27.0536 24.8789C28.7143 22.5218 29.7143 19.6306 29.7143 16.5C29.7143 8.71038 23.5536 2.35714 16 2.35714C8.44643 2.35714 2.28571 8.71038 2.28571 16.5C2.28571 19.6306 3.28571 22.5218 4.94643 24.8789C5.58929 21.5826 7.14286 18.8571 10.4107 18.8571C11.8571 20.3119 13.8214 21.2143 16 21.2143C18.1786 21.2143 20.1429 20.3119 21.5893 18.8571C24.8571 18.8571 26.4107 21.5826 27.0536 24.8789ZM22.8571 12.9643C22.8571 9.06027 19.7857 5.89286 16 5.89286C12.2143 5.89286 9.14286 9.06027 9.14286 12.9643C9.14286 16.8683 12.2143 20.0357 16 20.0357C19.7857 20.0357 22.8571 16.8683 22.8571 12.9643Z" fill="white"/>
</g>
<defs>
<clipPath id="clip0_32_40">
<rect width="32" height="33" fill="white"/>
</clipPath>
</defs>
</svg>
